<?xml version="1.0" encoding="UTF-8" standalone="no"?>
<svg
   width="4859.7437"
   height="4858.8828"
   viewBox="0 0 4859.7436 4858.8828"
   version="1.1"
   id="svg893"
   inkscape:version="1.3.2 (091e20e, 2023-11-25)"
   sodipodi:docname="paperedge.svg"
   xmlns:inkscape="http://www.inkscape.org/namespaces/inkscape"
   xmlns:sodipodi="http://sodipodi.sourceforge.net/DTD/sodipodi-0.dtd"
   xmlns:xlink="http://www.w3.org/1999/xlink"
   xmlns="http://www.w3.org/2000/svg"
   xmlns:svg="http://www.w3.org/2000/svg"
   xmlns:rdf="http://www.w3.org/1999/02/22-rdf-syntax-ns#"
   xmlns:cc="http://creativecommons.org/ns#"
   xmlns:dc="http://purl.org/dc/elements/1.1/">
  <defs
     id="defs887" />
  <sodipodi:namedview
     id="base"
     pagecolor="#ffffff"
     bordercolor="#666666"
     borderopacity="1.0"
     inkscape:pageopacity="0.0"
     inkscape:pageshadow="2"
     inkscape:zoom="0.68241362"
     inkscape:cx="360.48518"
     inkscape:cy="3680.3193"
     inkscape:document-units="px"
     inkscape:current-layer="layer1"
     inkscape:document-rotation="0"
     showgrid="true"
     units="px"
     inkscape:pagecheckerboard="true"
     inkscape:showpageshadow="2"
     inkscape:deskcolor="#d1d1d1"
     inkscape:window-width="1792"
     inkscape:window-height="1092"
     inkscape:window-x="0"
     inkscape:window-y="28"
     inkscape:window-maximized="0">
    <inkscape:grid
       type="xygrid"
       id="grid1456"
       empspacing="8"
       spacingx="8"
       spacingy="8"
       dotted="true"
       originx="2005.4479"
       originy="1266.5533"
       units="px"
       visible="true" />
  </sodipodi:namedview>
  <metadata
     id="metadata890">
    <rdf:RDF>
      <cc:Work
         rdf:about="">
        <dc:format>image/svg+xml</dc:format>
        <dc:type
           rdf:resource="http://purl.org/dc/dcmitype/StillImage" />
      </cc:Work>
    </rdf:RDF>
  </metadata>
  <g
     inkscape:label="Layer 1"
     inkscape:groupmode="layer"
     id="layer1"
     transform="translate(2005.4479,1266.5533)">
    <use
       x="0"
       y="0"
       xlink:href="#path2-9"
       id="use3"
       transform="rotate(-90,424.4296,1163.3242)"
       style="display:inline"
       sodipodi:insensitive="true" />
    <use
       x="0"
       y="0"
       xlink:href="#path2-9"
       id="use2"
       transform="rotate(180,424.42965,1162.7713)"
       style="display:inline"
       sodipodi:insensitive="true" />
    <use
       x="0"
       y="0"
       xlink:href="#path2-9"
       id="use1"
       transform="rotate(90,423.8766,1162.7712)"
       style="display:inline"
       sodipodi:insensitive="true" />
    <path
       id="path2-9"
       style="fill:#ffffff;fill-opacity:1;stroke-width:1"
       d="m -1945.6937,3552.0952 v -4778.6485 c -3.5895,0.2261 -23.1813,0.7892 -24.3575,0.9532 -9.2396,1.2883 -11.0773,4.2538 -5.5156,8.9004 3.8518,3.2195 5.6174,6.9468 3.8359,8.1054 -0.6911,0.4494 -1.2141,2.6652 -1.1621,4.9239 0.054,2.3478 -0.8868,4.8885 -2.1972,5.9316 -2.0213,1.6093 -1.6243,1.8153 3.373,1.7363 4.7054,-0.073 5.6766,0.3495 5.7266,2.4981 0.033,1.423 -0.5313,2.9732 -1.2539,3.4433 -0.7227,0.47 -1.3307,0.2177 -1.3477,-0.5586 -0.018,-0.7765 -0.9314,-1.3912 -2.0312,-1.3652 -2.6011,0.06 -2.4895,4.8763 0.1347,5.8145 1.1094,0.3966 2.0422,1.9403 2.0782,3.4296 0.034,1.4894 0.6632,2.6918 1.3964,2.6758 1.7446,-0.04 1.8553,6.0887 0.17,9.4199 -0.7261,1.4354 -2.0596,2.6275 -2.9629,2.6485 -1.8557,0.043 -1.6172,5.7603 0.5761,13.834 0.8507,3.1314 0.9532,6.4023 0.2618,8.3554 -0.6251,1.7654 -0.8054,6.3269 -0.4004,10.1348 0.5324,5.007 -0.1004,9.6149 -2.2832,16.6504 -1.6599,5.3506 -2.6639,10.5927 -2.2305,11.6484 0.4333,1.056 -0.145,3.4173 -1.2852,5.2481 -1.7146,2.753 -1.7518,3.4441 -0.2187,3.9922 1.0195,0.3644 2.9919,4.3861 4.3828,8.9375 2.3052,7.5433 2.3435,8.3857 0.4297,9.5156 -2.3851,1.4079 -2.6796,7.8564 -0.4551,9.9805 1.4736,1.4073 -0.3225,9.4992 -4.4941,20.2441 -2.1763,5.6049 -2.1267,7.0052 0.2461,6.9512 2.2242,-0.051 7.5708,6.0256 7.6328,8.6738 0.023,1.0009 -1.0639,1.845 -2.4141,1.875 -1.6977,0.039 -2.8971,1.6672 -3.8887,5.2773 -0.8007,2.9152 -2.916,6.2414 -4.7891,7.5313 -5.1005,3.5125 -3.2794,5.3942 4.6329,4.791 6.8496,-0.5219 6.8945,-0.4977 5.7246,2.8067 -1.4734,4.1616 -1.6251,27.2428 -0.2051,31.1894 0.7757,2.1559 0.3229,3.5713 -1.7207,5.375 -1.5256,1.3465 -4.7736,6.6494 -7.2169,11.7832 -3.7654,7.91197 -4.2842,10.15837 -3.4082,14.74807 0.5683,2.9781 1.686,5.8086 2.4844,6.289 1.2386,0.7457 1.8191,12.0735 1.1816,23.0723 -0.085,1.4689 0.01,4.9818 0.2012,7.8066 0.2875,4.1465 0.7707,4.9662 2.506,4.2539 2.7383,-1.1239 5.8624,1.3133 5.9394,4.6328 0.038,1.6672 -0.7266,2.4421 -2.1933,2.2207 -2.7875,-0.4206 -4.336,5.0833 -2.6524,9.4297 0.6528,1.6851 0.8681,5.402 0.4785,8.2598 -0.5238,3.8412 -0.1333,5.7449 1.5,7.3047 3.3121,3.1629 2.7971,7.6275 -1.539,13.3496 -2.5847,3.4095 -3.4554,5.6275 -2.5997,6.6113 0.7081,0.8144 1.7869,4.6842 2.3985,8.5996 0.8324,5.3297 1.7365,7.266 3.5977,7.7071 3.0581,0.7249 3.3297,4.6457 0.4921,7.1132 -1.728,1.5028 -1.9078,3.4372 -1.0039,10.8555 0.6013,4.9652 0.6099,9.0407 0.016,9.0547 -0.5943,0.014 -1.1019,3.0896 -1.1289,6.834 -0.027,3.7444 -0.6922,7.4794 -1.4766,8.3008 -0.7844,0.8212 -1.3964,2.7999 -1.3594,4.3965 0.037,1.5964 -0.8158,3.6694 -1.8946,4.6074 -2.8133,2.4465 -2.3635,4.3844 0.7677,3.3105 2.5217,-0.8647 2.6306,-0.5084 1.9746,6.4531 -0.5382,5.7113 -0.2227,7.8212 1.4043,9.375 2.0173,1.9264 2.1317,3.5347 1.6074,22.5489 -0.044,1.6066 -0.7613,2.2307 -2.041,1.7734 -3.1706,-1.1337 -3.8729,1.7259 -3.8829,15.7383 0,7.2608 -0.6043,13.8295 -1.3379,14.5976 -0.9098,0.9529 -0.608,1.903 0.9531,2.9903 1.9147,1.3332 2.0387,2.1107 0.752,4.7637 -0.8501,1.7563 -1.2324,6.1366 -0.8516,9.8222 0.512,4.9579 0.034,7.8428 -1.8789,11.3242 -2.0706,3.7699 -2.3662,6.0074 -1.5371,11.5938 0.565,3.8073 1.8089,7.2029 2.7656,7.5449 2.7251,0.9743 3.7808,9.6246 1.6914,13.8652 -2.6718,5.4229 -2.2417,6.9139 1.8907,6.5352 3.1921,-0.2926 3.611,0.091 3.2657,3.0078 -0.3915,3.3083 -1.7514,6.2773 -6.4806,14.1543 -2.7364,4.5577 -3.2266,6.6388 -1.2656,5.3633 1.6205,-1.0539 1.3721,-2.2421 2.4765,11.9258 0.5129,6.5785 1.4164,12.5597 2.0079,13.291 2.5094,3.1024 2.8047,8.6624 1.0469,19.7695 -1.1369,7.1836 -2.5871,12.1088 -3.6974,12.5645 -2.1083,0.8651 -2.2697,10.6811 -0.2265,13.7539 1.0376,1.5605 1.6323,1.614 2.92,0.2656 2.5063,-2.6245 3.288,-2.1356 5.7266,3.5742 2.554,5.9797 3.0936,11.9052 1.0879,11.9512 -0.7332,0.017 -1.3491,-0.708 -1.3711,-1.6113 -0.021,-0.9033 -1.5299,0.6647 -3.3536,3.4863 -2.556,3.9547 -2.9598,5.5403 -1.7617,6.918 0.9461,1.0879 1.247,3.6605 0.7696,6.5742 -0.5173,3.1572 -0.2798,4.7769 0.6972,4.7539 0.8147,-0.019 1.4568,-1.0673 1.4278,-2.3301 -0.044,-1.9037 0.3087,-1.8067 2.0566,0.5703 1.743,2.3704 1.8245,3.3445 0.4746,5.6211 -0.8979,1.5145 -2.0878,2.7624 -2.6445,2.7754 -1.5858,0.036 -1.079,4.6534 0.6972,6.3496 1.1719,1.1192 1.2355,2.3777 0.2383,4.707 -0.7486,1.7485 -1.6966,7.1881 -2.1074,12.0879 -0.7111,8.4818 -0.612,8.9068 2.0742,8.8438 4.0914,-0.094 3.591,3.7242 -0.7187,5.4844 -3.1705,1.295 -3.3577,1.6776 -1.4785,3.0019 1.1845,0.8349 2.5485,4.0365 3.0312,7.1153 0.6899,4.4008 0.3249,6.2639 -1.7031,8.7089 -2.1968,2.6491 -2.4984,4.7894 -2.0332,14.4336 0.7865,16.3036 0.7907,16.2842 -4.3497,23.2051 l -4.6895,6.3145 4.916,4.832 4.9142,4.832 -2.6504,2.5879 c -3.3569,3.2751 -2.6366,7.0464 1.3027,6.8145 2.5835,-0.1522 2.9742,0.51 3.1016,5.2636 0.08,2.9902 0.723,6.3038 1.4277,7.3633 0.8111,1.2201 0.7751,2.5624 -0.096,3.6621 -0.7561,0.9551 -1.0319,2.9333 -0.6132,4.3965 0.4391,1.5336 -0.022,3.1236 -1.0899,3.7539 -2.4252,1.4316 -7.0819,11.1548 -6.0802,12.6953 0.428,0.6579 2.4601,0.7867 4.5158,0.2852 3.0926,-0.7543 3.9146,-0.3937 4.7656,2.0879 0.7741,2.2574 0.3359,3.4808 -1.7715,4.9512 -1.5396,1.0743 -2.7855,2.5381 -2.7695,3.2519 0.016,0.7138 -1.2187,3.1382 -2.7442,5.3887 l -2.7735,4.0918 2.8438,-1.6074 c 2.504,-1.4152 3.011,-1.1953 4.2442,1.8359 2.0936,5.1468 1.919,13.36 -0.3262,15.3125 -2.2072,1.9192 -2.5063,8.7971 -0.4355,10.0117 2.6276,1.5416 1.4186,5.927 -2.4629,8.9375 -4.9304,3.8237 -4.9415,5.2353 -0.043,5.1231 3.0049,-0.069 4.2159,0.7688 5.582,3.8632 0.9715,2.2004 1.3495,5.2951 0.8535,6.9825 -1.2238,4.1646 -3.0948,16.9623 -3.1308,21.4218 -0.017,2.1425 -0.7818,3.684 -1.8379,3.709 -2.1469,0.05 -2.3276,4.8427 -0.2285,6.0742 0.8153,0.4781 1.1285,2.3316 0.707,4.1914 -0.4192,1.8496 -0.036,4.161 0.8613,5.1934 1.2667,1.4567 1.1561,2.3961 -0.5097,4.3242 -2.6867,3.1096 -2.6939,4.7897 -0.018,3.6914 1.7609,-0.7228 1.9496,0.078 1.2969,5.4961 -0.4201,3.4877 -1.454,7.2572 -2.2969,8.377 -0.8429,1.1198 -2.2043,3.7166 -3.0254,5.7715 -1.3477,3.3738 -1.1891,3.8676 1.6387,5.0781 4.2385,1.8145 8.1119,8.0857 6.2187,10.0683 -1.0237,1.0729 -2.1016,1.0797 -3.873,0.029 -1.9553,-1.1593 -3.0016,-0.9376 -5.1388,1.0879 -3.3355,3.1608 -3.3133,6.1352 0.096,12.795 1.4652,2.862 2.3606,6.4809 1.9903,8.0429 -0.5821,2.456 -0.2624,2.7006 2.3614,1.8008 2.7193,-0.9326 2.9421,-0.7112 2.1484,2.1328 -0.4871,1.7451 -0.7647,3.9204 -0.6172,4.834 0.966,5.9811 0.5445,17.821 -0.7949,22.3574 -0.8721,2.9542 -1.7389,10.1035 -1.9258,15.8887 -0.3256,10.0859 -0.2271,10.4875 2.3828,9.7402 2.6836,-0.7683 3.8436,1.4316 1.8535,3.5157 -0.5198,0.5444 -0.9274,4.276 -0.8964,8.2929 0.037,5.5213 0.4736,7.1289 1.7871,6.5899 2.2064,-0.9056 2.3351,2.1165 0.1875,4.3964 -1.3037,1.3843 -1.1547,2.0588 0.7461,3.3965 2.9089,2.0475 3.1783,6.4554 0.5351,8.7539 -1.0786,0.9381 -1.9362,2.7976 -1.9062,4.1309 0.031,1.3332 -0.535,2.8073 -1.2578,3.2773 -0.7226,0.47 -1.2192,4.9624 -1.1036,9.9825 0.202,8.765905 0.3291,9.099505 3.1954,8.419905 2.7907,-0.6616 2.7498,-0.498 -0.6153,2.5273 -2.8855,2.5942 -3.6851,4.6553 -4.0351,10.4043 -0.2402,3.9434 -0.7722,8.8834 -1.1817,10.9766 -0.5727,2.9276 -0.2583,3.7958 1.3614,3.7578 2.5068,-0.058 2.6066,0.8268 0.7441,6.5938 -1.1048,3.4208 -1.0351,4.5985 0.3184,5.3925 1.1116,0.6521 1.479,2.4514 1.0253,5.0274 -0.6161,3.4973 -0.3762,3.9156 1.8809,3.2695 2.1909,-0.627301 2.6026,-0.052 2.6836,3.7461 0.052,2.4683 -0.9737,6.1923 -2.2793,8.2754 -1.3315,2.1242 -2.0749,5.176 -1.6934,6.9492 0.4425,2.057 -0.4959,4.7786 -2.6855,7.791 -3.8226,5.2586 -4.3486,8.4325 -1.1816,7.1328 1.8326,-0.7521 2.0035,0.049 1.3105,6.1621 -0.4382,3.8646 -1.2897,8.4265 -1.8926,10.1387 -1.7954,5.0983 -1.2995,7.2196 1.4649,6.2715 2.0156,-0.6912 2.6278,0.021 3.3457,3.8809 0.6575,3.5344 -0.046,6.9222 -2.7891,13.4336 -2.0175,4.7892 -3.1336,8.6946 -2.4805,8.6796 0.6531,-0.015 1.541,-1.2359 1.9727,-2.7128 0.4315,-1.477 1.7138,-2.7065 2.8496,-2.7325 1.5487,-0.036 1.8333,0.7081 1.1367,2.9746 -1.5697,5.1066 -0.9061,10.2646 1.6699,12.982495 2.1624,2.2816 2.1988,2.5995 0.3106,2.6425 -1.41,0.032 -2.4182,1.7086 -2.9395,4.8907 -0.4364,2.6632 -2.5439,6.9346 -4.6855,9.4902 -2.1416,2.5555 -3.5798,4.9454 -3.1954,5.3125 0.3844,0.367 2.5648,-1.8036 4.8458,-4.8242 2.281,-3.0205 4.5776,-5.5007 5.1035,-5.5137 0.5258,-0.012 0.9465,3.6043 0.9355,8.0371 -0.018,6.8971 -0.5582,8.6468 -3.7402,12.125 -2.0449,2.2353 -4.4528,3.8 -5.3516,3.4785 -1.6228,-0.5802 -5.3161,2.8883 -4.2051,3.9493 0.3192,0.3049 2.9674,0.7496 5.8829,0.9882 5.2584,0.4302 5.2977,0.4763 5.0019,5.6211 -0.164,2.8525 -1.4474,6.8719 -2.8515,8.9336 l -2.5528,3.75 4.0098,0.7051 c 3.6671,0.646 3.9462,1.0616 3.2754,4.8691 -0.4032,2.2896 -1.8028,5.3667 -3.1113,6.8379 -3.1366,3.5262 -2.977,5.2401 0.3828,4.0879 2.6176,-0.8977 6.6306,1.0663 6.6816,3.2696 0.014,0.5911 -0.9687,2.1126 -2.1816,3.3828 -2.0721,2.1698 -2.0513,2.4176 0.3554,4.0937 1.9587,1.3642 2.2027,2.1602 1.0352,3.3828 -1.1286,1.1864 -1.126,2.0565 0.016,3.3692 1.178,1.3547 0.8739,2.5094 -1.2988,4.9316 -2.3297,2.5973 -2.6613,4.1168 -1.8574,8.4941 0.5657,3.0807 0.3801,6.513 -0.4375,8.129 -0.9326,1.8421 -0.9514,3.0679 -0.059,3.5918 2.3408,1.3731 1.5417,3.3177 -1.9453,4.7363 -3.7166,1.5119 -12.4198,8.42 -12.3868,9.832 0.027,1.1566 7.8943,-2.8608 10.8751,-5.5527 2.0918,-1.8891 2.2933,-1.785 2.3613,1.209 0.042,1.7999 -0.6269,4.0082 -1.4863,4.9082 -1.2155,1.2728 -1.0874,1.6269 0.5781,1.5879 2.4793,-0.057 1.8546,4.7885 -1.0039,7.7871 -2.6197,2.7479 -2.0586,8.2877 0.832,8.2207 1.3196,-0.03 3.1984,-0.8242 4.1758,-1.7637 0.9773,-0.9394 0.5767,0.1211 -0.8906,2.3555 -1.4672,2.2345 -4.4825,5.8668 -6.6993,8.0722 -2.2168,2.2056 -4.0161,4.6168 -4.0001,5.3594 0.018,0.773 0.7011,0.6517 1.5958,-0.2852 0.8596,-0.9 2.931,-1.668 4.6055,-1.707 l 3.0449,-0.07 -2.6601,5.4043 c -1.4628,2.9715 -3.1881,5.7468 -3.836,6.168 -0.6477,0.4214 -1.1634,1.3996 -1.1464,2.1738 0.018,0.7742 1.5617,0.3548 3.4296,-0.9316 4.0547,-2.7923 4.117,-2.7498 4.75,3.1777 0.6776,6.346 -0.9991,14.8284 -3.5488,17.9492 -1.5739,1.9265 -1.6812,2.7142 -0.4258,3.1211 3.8965,1.263 -0.8031,10.8001 -6.3712,12.9297 -4.5023,1.7219 -2.4277,3.7916 2.7306,2.7246 l 4.9785,-1.0293 -3.2676,2.9043 c -2.7733,2.4644 -2.9612,3.095 -1.2382,4.1758 1.6002,1.0037 1.7187,1.8014 0.5605,3.7715 -1.2536,2.1323 -1.0605,2.4778 1.3106,2.3457 2.1257,-0.1185 3.0331,0.9264 3.8554,4.4453 0.5915,2.5306 0.5528,5.6341 -0.086,6.8965 -0.7222,1.4276 -0.6638,2.4517 0.1562,2.707 0.85,0.2651 0.8571,2.236 0.02,5.5625 -1.0664,4.2358 -0.909,5.5629 0.8847,7.4551 1.2828,1.354 1.8374,3.2702 1.3438,4.6504 -0.4809,1.3454 -0.1043,2.7783 0.8828,3.3574 2.3778,1.395 0.4143,4.2779 -2.3613,3.4668 -1.3559,-0.3962 -2.8818,0.3968 -3.8242,1.9863 -1.3097,2.2089 -1.2449,2.5107 0.3945,1.8379 2.2561,-0.926 2.9618,4.088 0.7754,5.5098 -1.5424,1.0031 -1.7133,3.3748 -0.2403,3.3398 0.5593,-0.013 1.5789,-1.3479 2.2657,-2.9668 1.911,-4.5044 4.2922,-4.5793 4.0449,-0.1269 -0.2561,4.613 -1.6446,7.2995 -3.2774,6.3418 -0.6549,-0.3843 -1.837,0.5792 -2.6269,2.1406 -1.3089,2.5873 -1.201,2.7066 1.2168,1.3398 3.5656,-2.0151 5.1822,0.4808 2.3984,3.7032 -1.1417,1.3216 -2.0628,2.9168 -2.0488,3.5449 0.014,0.6281 -1.2903,2.6445 -2.8984,4.4804 l -2.9239,3.3379 5.6485,-0.8535 c 6.739,-1.0189 7.7619,1.5067 2.4004,5.9278 -3.8352,3.1624 -3.3963,4.7237 0.6796,2.4199 3.3384,-1.8868 3.5799,-0.5835 0.543,2.9316 -2.1296,2.4652 -2.1242,2.6652 0.1192,3.8535 2.2293,1.1811 2.2166,1.4749 -0.2247,5.0762 -1.9333,2.8519 -4.1139,4.0867 -8.5878,4.8633 -3.2983,0.5725 -5.9839,1.6047 -5.9689,2.293 0.026,1.1431 4.9595,1.7687 9.0294,1.1445 2.1834,-0.3348 2.1182,0.6131 -0.3144,4.5195 -1.9123,3.0704 -1.877,3.1933 0.7226,2.4492 3.5841,-1.0261 3.4752,0.078 -0.5527,5.6192 l -3.3301,4.5801 2.8066,1.664 c 3.948,2.3408 3.5744,5.6786 -1.0214,9.1133 -4.8398,3.6172 -5.2683,7.2013 -0.711,5.9453 2.4969,-0.6883 3.315,-0.2391 4.0332,2.2149 1.6245,5.5513 1.1587,10.2452 -1.1523,11.6093 -2.8002,1.6529 -3.2969,10.9322 -0.5821,10.8692 0.9817,-0.023 1.8128,1.1083 1.8438,2.5136 0.032,1.405 0.6441,2.7428 1.3594,2.9707 0.7152,0.2281 0.8554,1.1659 0.3125,2.086 -0.7099,1.203 -2.1882,1.358 -5.2618,0.5527 -4.7735,-1.2507 -7.5196,0.9113 -3.7168,2.9258 3.0004,1.5894 7.6506,6.435 7.6876,8.0098 0.016,0.6973 -1.0022,2.118 -2.2618,3.1562 -2.0631,1.7 -1.9335,1.7965 1.3047,0.9844 l 3.5957,-0.9024 -4.5019,5 c -5.0966,5.6596 -6.1194,9.8671 -1.8067,7.4297 2.1296,-1.2037 2.4692,-1.0955 1.8653,0.5938 -0.4062,1.1359 -0.039,2.87 0.8183,3.8555 1.2061,1.3869 1.0294,2.0233 -0.7851,2.8125 -2.2175,0.9646 -2.2092,1.0678 0.1484,1.8867 2.3237,0.8071 2.2624,1.1501 -0.8848,5.0703 -3.8272,4.7672 -4.2566,6.4844 -1.3203,5.2793 2.7345,-1.1223 8.0083,3.961 6.334,6.1054 -0.69,0.8837 -1.4096,4.011 -1.5976,6.9493 -0.3179,4.97 -0.085,5.3659 3.3339,5.6797 2.0215,0.1855 3.6824,0.701 3.6954,1.1445 0.044,1.9341 -4.5096,5.7887 -6.9043,5.8437 -2.1318,0.049 -2.3157,0.4127 -0.9844,1.9434 0.9007,1.0359 1.5077,2.9716 1.3496,4.3027 -0.1581,1.331 0.2113,4.3458 0.8223,6.6992 1.4501,5.5855 0.3972,8.8589 -3.5743,11.1036 -1.7736,1.0024 -2.8911,2.3333 -2.4843,2.9589 0.4068,0.6249 1.1423,0.8942 1.6347,0.5958 0.4927,-0.2983 2.1052,-0.1266 3.584,0.3828 2.3649,0.8148 2.1062,1.1899 -2.1543,3.1054 -4.7523,2.1367 -10.1571,8.767 -5.6328,6.9102 1.501,-0.616 1.812,-0.2289 1.1973,1.4902 -0.6935,1.9401 -0.308,2.1508 2.3476,1.2754 3.3909,-1.1176 3.6084,-1.1529 6.1817,-0.9687 2.8506,0.2039 1.9633,5.65518 -1.461,8.97848 -1.8545,1.7999 -3.2256,4.6467 -3.1816,6.6015 0.047,2.0523 -0.8519,3.8126 -2.2324,4.3672 -2.3856,0.9584 -5.4505,4.4064 -5.4845,6.17 -0.011,0.5505 1.3917,0.9677 3.1153,0.9277 2.5723,-0.059 11.2338,2.0322 12.6367,3.0508 1.2273,0.8912 -1.7782,5.0948 -4.4062,6.164 -3.1202,1.2692 -4.2882,4.0317 -1.6797,3.9707 0.9133,-0.021 0.9658,0.7867 0.1563,2.3868 -0.6726,1.3296 -1.0921,3.5886 -0.9317,5.0214 0.2079,1.8577 -0.4184,2.5005 -2.1816,2.2403 -2.463,-0.3634 -7.4622,3.325 -7.4122,5.4687 0.014,0.6195 0.9257,1.1061 2.0254,1.0801 1.0998,-0.025 2.0277,1.0841 2.0586,2.4648 0.032,1.3895 1.256,2.7947 2.7403,3.1465 3.7954,0.8996 3.5673,6.3587 -0.4297,10.291 -4.1016,4.0339 -4.09,5.429 0.043,5.334 1.7896,-0.041 3.5287,0.3697 3.8652,0.9121 1.0869,1.7525 -1.459,7.0361 -3.4121,7.0801 -1.042,0.024 -3.2825,1.3099 -4.9786,2.8574 -2.9009,2.6468 -2.9134,2.7259 -0.2051,1.3379 4.5271,-2.3197 9.467,-1.9106 11.0645,0.916 1.9166,3.3909 1.8887,3.5445 -1.2109,6.5684 l -2.6816,2.6172 3.6211,0.8223 c 2.7198,0.6164 3.25,1.2086 2.1308,2.3808 -0.8199,0.8584 -1.4569,2.9616 -1.4179,4.6738 0.039,1.7119 -0.8515,4.5945 -1.9786,6.4043 -2.4054,3.8624 -1.2044,13.269 2.1582,16.9043 1.8809,2.0337 1.7631,2.3886 -1.2773,3.8594 -4.2045,2.03402 -5.5417,6.75632 -2.5215,8.90432 1.7869,1.2707 1.9064,1.9629 0.6152,3.5938 -0.8649,1.1114 -1.2694,2.5288 -0.8652,3.1503 0.7693,1.183 -1.7504,10.2988 -3.293,11.9141 -1.4749,1.5445 -0.9511,3.419 0.7813,2.7969 0.8893,-0.3194 1.9277,-2.0438 2.3066,-3.832 1.0924,-5.1559 4.4857,-4.1106 5.0899,1.5683 0.4298,4.0401 -0.072,5.3182 -2.834,7.2207 -4.456,3.0686 -4.198,4.4355 0.9102,4.8242 l 4.2148,0.3203 -3.5586,4.4161 c -2.9315,3.6382 -3.1549,4.4062 -1.2656,4.3632 2.426,-0.056 2.4088,1.7959 -0.1524,15.6582 -1.3918,7.5339 -0.2827,12.9941 2.2012,10.834 1.4325,-1.2457 1.8142,-1.0085 1.8652,1.1524 0.1017,4.4123 -1.2943,6.9723 -3.8379,7.0293 -2.9041,0.067 -4.4711,3.8253 -2.5273,6.0605 0.7795,0.8964 1.0625,2.6214 0.6289,3.834 -0.4336,1.2126 -0.077,3.0246 0.793,4.0254 0.8964,1.0308 1.2418,3.3274 0.7949,5.2988 -0.524,2.3126 -0.2474,3.4684 0.8262,3.4434 0.8886,-0.02 -0.1965,2.1256 -2.4121,4.7695 -4.2612,5.0848 -5.5075,11.9635 -1.8985,10.4824 2.4067,-0.9878 2.6458,0.956 0.4102,3.336 -1.3119,1.3968 -0.9212,1.5403 2.0176,0.7422 4.1412,-1.1245 5.2098,1.691 1.7754,4.6777 -1.0787,0.9381 -1.9324,2.8729 -1.9004,4.2988 0.046,1.9861 0.6778,2.379 2.705,1.6836 3.3955,-1.1644 3.441,0.8253 0.092,4 -3.3208,3.1474 -3.2479,5.3183 0.2852,8.461 l 2.8164,2.5039 -4.0195,4.7968 c -2.2107,2.6379 -3.9188,5.2943 -3.7969,5.9043 0.7661,3.8364 -0.2921,6.8982 -2.6133,7.5625 -1.4574,0.4174 -2.6285,1.7164 -2.6016,2.8848 0.062,2.6739 1.8992,2.687 4.002,0.031 0.8873,-1.1209 2.4604,-2.056 3.4961,-2.08 1.4702,-0.034 1.5835,0.5492 0.5176,2.6562 -1.1079,2.1898 -0.9517,2.6895 0.8261,2.6485 1.6902,-0.039 2.012,0.7396 1.4063,3.4121 -0.509,2.2462 -0.3042,3.1524 0.582,2.5761 1.8649,-1.213 1.7803,1.0207 -0.1133,3.0039 -1.1742,1.2363 -2.003,1.2414 -3.5507,0.024 -1.6107,-1.2675 -2.1338,-1.2156 -2.5918,0.2578 -0.3156,1.0158 -1.7425,3.0695 -3.17,4.5644 -2.1068,2.2061 -2.2479,2.9286 -0.746,3.8321 1.0177,0.6123 2.4203,1.1035 3.1171,1.1035 0.6967,0 0.5645,0.7288 -0.2949,1.6289 -2.5592,2.68 -1.7336,4.1195 1.8047,3.1445 4.181,-1.1525 4.5323,1.6465 0.666,5.3106 -4.8354,4.5831 -5.4416,7.0952 -2.5566,10.5937 2.0534,2.4904 2.5122,4.6277 2.1269,9.916 -0.4083,5.6012 -0.1244,6.7325 1.6778,6.6915 3.3684,-0.078 2.8249,5.0056 -0.5977,5.5898 -3.3893,0.579 -4.9045,3.8738 -1.748,3.8008 1.7808,-0.041 1.9057,0.4466 0.7187,2.7929 -1.1313,2.2367 -2.2687,2.6959 -5.332,2.1563 -5.0139,-0.8831 -4.92,1.0702 0.2246,4.6934 3.8124,2.685 3.9419,3.0449 2.1367,5.94333 -2.1936,3.5226 -2.4243,9.3054 -0.418,10.4824 2.0264,1.1888 1.7197,4.7816 -0.6425,7.5157 -2.0928,2.4223 -6.0241,19.7948 -4.754,21.0078 0.3695,0.3528 0.9976,-0.5026 1.3964,-1.9004 0.399,-1.3979 2.1079,-5.7254 3.797,-9.6153 3.0306,-6.9796 5.7178,-9.245 5.8184,-4.9062 0.028,1.2253 1.0392,3.2716 2.248,4.5469 2.0383,2.1505 1.9396,2.5677 -1.3574,5.7676 -2.3072,2.2391 -3.2401,4.2168 -2.6582,5.6347 1.1035,2.6889 -1.2857,5.9844 -3.7109,5.1172 -0.9806,-0.3506 -2.1397,-0.032 -2.5743,0.709 -1.0476,1.7857 3.9209,3.1687 7.2657,2.0215 3.1051,-1.0648 3.5502,0.8744 0.7578,3.3027 -2.5782,2.2419 -1.2999,3.98 2.1914,2.9805 2.192,-0.6274 2.6925,-0.2622 2.3574,1.7226 -0.2338,1.3855 -1.6128,2.7682 -3.0644,3.0723 -4.046,0.8479 -6.2856,3.179 -4.5997,4.7891 0.9861,0.9417 1.9002,0.856 2.9844,-0.2793 1.9145,-2.0048 3.6846,-2.1553 3.7266,-0.3184 0.017,0.7513 -1.4547,1.9698 -3.2715,2.709 -3.7512,1.5259 -4.1177,3.7556 -1.2266,7.4433 1.3053,1.6644 1.7738,4.217 1.3594,7.3907 -0.3901,2.987 -0.033,5.2008 0.9297,5.7656 2.5592,1.5013 0.4515,12.8392 -3.2461,17.4609 l -3.2617,4.0762 3.5488,0.3399 c 3.5013,0.3356 4.6831,1.9709 2.4668,3.4121 -3.1359,2.0394 -1.2945,23.4813 2.0098,23.4043 1.4815,-0.034 1.4247,7.7171 -0.078,10.6875 -0.9814,1.9399 -0.7567,2.8186 0.957,3.7265 1.9674,1.0422 1.8151,1.4805 -1.2422,3.586 -4.0134,2.7639 -4.4394,5.4384 -1.0606,6.6464 2.0861,0.7457 1.9846,1.1304 -0.9199,3.4883 -2.5997,2.1104 -2.8853,2.8839 -1.4004,3.8008 1.0661,0.6584 1.442,1.8726 0.877,2.8359 -0.5436,0.9266 -1.0433,6.1265 -1.1113,11.5547 -0.067,5.428 -0.8329,10.7664 -1.7012,11.8633 -0.8684,1.0967 -1.1214,1.9837 -0.5625,1.9707 0.5587,-0.013 1.7972,-1.0926 2.7519,-2.3984 1.5224,-2.0818 1.6458,-1.7979 1.0079,2.3105 -0.4001,2.5765 -1.816,5.784 -3.1465,7.127 -1.3305,1.3429 -2.4019,3.2243 -2.3789,4.1816 0.022,0.9577 -1.1346,2.8561 -2.5703,4.2168 -1.4358,1.3609 -2.5981,2.98 -2.5841,3.5996 0.045,1.9703 5.4127,1.086 6.1641,-1.0156 1.1006,-3.0783 3.0929,-2.454 3.1719,0.9941 0.039,1.6861 0.7104,3.6773 1.4922,4.4239 0.9863,0.9417 0.8033,1.8927 -0.5957,3.1093 -1.6506,1.4362 -2.0226,1.4231 -2.0586,-0.074 -0.024,-1.0628 -1.439,-1.7949 -3.375,-1.7519 -4.6513,0.1072 -4.1915,0.9187 2.7812,4.914 6.9353,3.9741 7.6757,6.3906 2.6973,8.7989 -4.7141,2.2806 -2.9096,3.5662 2.2774,1.623 3.7335,-1.3988 4.0709,-1.3202 3.2519,0.7695 -0.5028,1.2827 -1.2888,4.4886 -1.748,7.1231 -0.4592,2.6344 -1.2295,5.4622 -1.711,6.2832 -0.4815,0.8206 -0.3036,1.8266 0.3946,2.2363 0.6983,0.4097 1.2922,3.8885 1.3242,7.7305 0.031,3.842 0.4809,8.2076 1,9.7012 0.5403,1.5545 0.1799,3.8101 -0.8418,5.2773 -1.4659,2.1097 -1.4665,2.8652 0,4.2656 0.9801,0.9359 2.2955,1.6898 2.9219,1.6758 0.9358,-0.022 1.2006,3.1491 0.6816,8.1738 -0.049,0.4716 -1.5802,1.2693 -3.4024,1.7715 -1.8222,0.5023 -3.3001,1.4735 -3.2851,2.1582 0.016,0.6849 -2.493,2.4653 -5.5762,3.9551 -3.0832,1.4899 -6.7828,3.7358 -8.2208,4.9922 -2.556,2.2334 -2.5466,2.2503 0.4531,0.7051 1.6878,-0.8681 3.8853,-1.2903 4.883,-0.9336 0.9976,0.3566 2.4887,-0.2033 3.3144,-1.2461 1.2047,-1.5215 2.0694,-1.5922 4.3731,-0.3555 5.2961,2.8423 6.8886,4.8105 5.2695,6.5059 -0.8135,0.8517 -1.4395,3.1314 -1.3965,5.0664 0.058,2.5265 -1.7585,5.2659 -6.4453,9.7187 -3.815,3.6244 -6.501,7.3431 -6.463,8.9532 0.035,1.5147 -0.5272,3.1392 -1.25,3.6093 -0.7226,0.47 -1.2983,1.5223 -1.2793,2.3399 0.019,0.8178 1.3927,0.1507 3.0527,-1.4825 3.7499,-3.6889 4.7787,-3.7735 3.9611,-0.3242 -0.3796,1.6011 0.02,2.6676 0.9922,2.6446 1.0961,-0.025 1.5015,1.7102 1.2421,5.3066 -0.4049,5.6118 0.1455,6.3619 2.7012,3.6855 1.1976,-1.254 1.5227,0.5549 1.4317,7.9688 -0.089,7.2397 0.3145,9.5808 1.6464,9.5508 0.9804,-0.022 1.4118,0.5619 0.9805,1.2969 -0.4599,0.784 0.119,0.9653 1.4004,0.4394 3.877,-1.5911 1.6876,3.9776 -2.375,6.041 -2.236,1.1359 -3.4085,2.602 -2.959,3.6973 0.4098,0.9984 -0.7017,3.0078 -2.4687,4.4648 -3.2974,2.719 -4.2171,5.6224 -1.7637,5.5664 0.9508,-0.022 0.9689,0.7789 0.059,2.5782 -1.7635,3.4859 -1.6522,4.1262 0.7129,4.0722 1.0996,-0.025 2.0209,0.8536 2.0469,1.9532 0.06,2.6003 1.3676,2.511 3.2714,-0.2227 1.1721,-1.6831 1.238,-0.1773 0.2911,6.582 -0.9104,6.4989 -2.1505,9.771 -4.7989,12.666 -1.9642,2.1472 -3.5541,4.5453 -3.5371,5.3282 0.018,0.783 -2.6109,3.9727 -5.8399,7.0898 -3.229,3.1171 -5.8559,6.2547 -5.8399,6.9727 0.029,1.2559 4.4759,1.8353 10.0333,1.3047 2.6295,-0.251 2.6287,-0.2251 -0.023,2.123 -1.4769,1.3076 -4.1293,3.3963 -5.8946,4.6406 -4.3999,3.101 -2.3583,4.5568 2.5937,1.8496 3.2192,-1.7597 4.6857,-1.9023 7.4415,-0.7226 4.2041,1.7998 4.4243,4.5346 0.6992,8.6875 -1.555,1.7336 -2.1437,3.1352 -1.3086,3.1172 0.835,-0.019 2.1338,-1.2501 2.8848,-2.7344 1.344,-2.6569 5.2459,-3.8724 5.2969,-1.6504 0.014,0.626 -1.4372,2.7907 -3.2246,4.8106 -1.7872,2.0199 -3.2168,5.068 -3.1778,6.7714 0.039,1.7035 -0.2713,5.0478 -0.6914,7.4336 -0.7245,4.1129 -0.6186,4.2557 2.0625,2.7403 2.4055,-1.3596 2.8323,-1.2422 2.8223,0.7832 0,1.3095 -0.7177,4.1656 -1.5898,6.3476 -1.3726,3.4347 -1.2593,4.2786 0.8418,6.2852 1.335,1.2748 3.331,1.9463 4.4375,1.4922 1.3627,-0.5593 2.0273,-0.027 2.0273,1.6504 0.019,3.2848 -2.9194,7.2144 -5.4395,7.2714 -1.2651,0.029 -1.9904,1.2912 -1.9414,3.3789 0.045,1.9389 0.8438,3.3141 1.9102,3.2891 2.418,-0.056 2.3737,1.8735 -0.092,4.0176 -1.4735,1.2814 -1.5926,2.1626 -0.4668,3.457 1.8696,2.1501 -0.1047,9.4343 -3.9434,14.5528 -3.0077,4.0105 -2.3371,4.37 2.25,1.2109 3.0406,-2.0939 3.2382,-2.0783 3.2872,0.2578 0.049,2.321 -2.0587,6.347 -7.1485,13.6563 -2.0682,2.9703 -2.0119,3.0696 2.1055,3.7949 5.4828,0.9656 7.6645,4.5209 4.1797,6.8105 -3.0187,1.9833 -3.2794,4.3287 -0.4746,4.2637 2.7073,-0.062 2.5519,1.5945 -0.5352,5.7109 -3.3693,4.4925 -3.2573,7.7138 0.2656,7.6328 2.2027,-0.051 2.5878,0.5084 1.9219,2.7872 -1.2127,4.1502 -5.7636,11.972 -6.9824,12 -0.5752,0.013 -1.3227,1.0796 -1.6621,2.371 -0.3393,1.2915 -1.0387,3.5583 -1.5528,5.0372 -0.5141,1.4788 0.5285,0.6853 2.3164,-1.7637 2.7036,-3.7027 3.4039,-4.0789 4.1602,-2.2363 1.0552,2.5713 -2.4577,7.2435 -5.5,7.3125 -1.6093,0.037 -1.4957,0.4309 0.5273,1.8398 1.4158,0.9861 3.2484,1.5159 4.0723,1.1777 1.928,-0.7912 1.7381,5.8262 -0.2812,9.8047 -0.9829,1.9365 -1.0317,3.2295 -0.1407,3.752 0.9016,0.529 0.8959,1.7139 -0.017,3.5195 -0.7574,1.4972 -1.0615,3.4948 -0.6739,4.4395 0.3878,0.9447 0.025,2.4319 -0.8086,3.3046 -1.152,1.2065 -1.0483,1.8609 0.4375,2.7325 1.5429,0.9052 1.6583,1.8042 0.543,4.2675 -2.1433,4.7341 -2.7846,7.4783 -1.9355,8.2891 1.2513,1.1952 5.6925,-1.89 5.6445,-3.9219 -0.024,-1.0307 0.6486,-2.3231 1.4941,-2.873 1.0793,-0.7018 1.2522,-0.2333 0.5801,1.5742 -1.2305,3.3089 -2.0282,9.1898 -2.168,15.9961 -0.061,2.966 -1.1234,7.0203 -2.3613,9.0098 -2.8519,4.5836 -2.8125,4.9622 0.4258,4.0351 3.9982,-1.1445 3.5596,4.1874 -0.5957,7.2344 -6.7255,4.9318 -10.3624,8.4254 -9.5646,9.1895 0.4481,0.4291 2.3231,-0.4627 4.1662,-1.9825 4.4178,-3.6429 7.0577,-3.5526 9.7343,0.334 1.7111,2.4847 1.8849,3.8146 0.7871,5.9844 -1.8117,3.5814 -4.4122,3.709 -3.3769,0.166 0.8525,-2.9177 -1.2978,-3.5134 -4.6445,-1.2871 -1.668,1.1097 -1.6376,1.5834 0.2421,3.6406 1.1888,1.3011 1.9065,3.1228 1.5957,4.0469 -0.3109,0.9241 0.4548,1.6558 1.7012,1.627 1.5391,-0.035 2.0573,0.7014 1.6133,2.2968 -1.6565,5.9514 -3.7795,12.0776 -5.3965,15.5743 -1.3432,2.9045 -1.3689,3.6864 -0.1094,3.2636 0.9109,-0.3058 2.7036,-2.7987 3.9844,-5.539 2.3277,-4.9795 6.0663,-6.8434 6.1543,-3.0684 0.025,1.0997 -0.5539,2.0123 -1.2871,2.0293 -0.7332,0.017 -1.3055,1.234 -1.2715,2.7051 0.034,1.4711 -1.407,4.0145 -3.2031,5.6504 -3.5994,3.2783 -4.4031,7.2786 -1.1973,5.9629 1.0899,-0.4474 1.9957,-0.2316 2.0117,0.4785 0.016,0.7101 -0.5484,1.3041 -1.2558,1.3203 -0.7072,0.016 -1.9269,1.2957 -2.709,2.8418 -1.1365,2.2464 -0.9398,3.3198 0.9785,5.3437 1.6918,1.7851 1.993,2.9591 1.0195,3.9786 -1.4167,1.4836 -0.6528,6.5397 0.9825,6.5019 0.5011,-0.012 1.7541,-0.7898 2.7851,-1.7305 1.031,-0.9406 0.6592,-0.1825 -0.8281,1.6856 -5.0032,6.2843 -5.1562,7.2794 -0.9395,6.1172 3.6745,-1.0128 3.7271,-0.9599 1.5665,1.541 -2.4815,2.8723 -2.856,6.4682 -0.8008,7.6738 0.8239,0.4834 0.5768,2.003 -0.6426,3.961 -1.4151,2.2722 -1.5291,3.3157 -0.4043,3.6621 0.865,0.2663 1.7172,3.1567 1.8945,6.4238 0.1773,3.2671 0.8356,6.7059 1.4629,7.6406 0.6808,1.0145 0.3174,3.0192 -0.9004,4.9746 -2.538,4.0775 -2.5429,4.8379 -0.025,3.8047 1.2357,-0.5071 2.0003,-0.036 2.0293,1.25 0.072,3.1216 -2.7507,4.2975 -4.2441,1.7676 -1.0372,-1.7571 -1.7108,-1.8898 -3.1719,-0.6191 -2.1323,1.8541 -2.2798,3.8168 -0.4902,6.5058 0.9946,1.4946 1.6498,1.5417 3.1621,0.2266 3.6926,-3.2112 4.2306,5.5077 0.6367,10.3242 -1.0616,1.423 -0.9983,2.0517 0.2481,2.4394 2.186,0.6801 2.3835,9.215 0.2324,10.0508 -0.9087,0.3532 -2.6838,-0.2143 -3.9453,-1.2617 -2.4951,-2.0714 -5.1139,-1.1707 -5.0469,1.7363 0.023,1.0033 1.4454,2.8862 3.1602,4.1836 4.9002,3.7074 5.5646,5.5424 3.0566,8.4453 -2.0079,2.3242 -2.0243,2.6293 -0.1484,2.586 3.8167,-0.088 3.7342,2.23 -0.2344,6.6797 -2.1425,2.4021 -3.8783,5.0059 -3.8613,5.7871 0.018,0.7811 -0.9347,2.5414 -2.1172,3.9101 -3.2225,3.7301 0.145,2.9333 4.7461,-1.123 4.3422,-3.828 5.3265,-2.5334 2.0605,2.7109 -1.1169,1.7932 -1.7944,4.9392 -1.5059,6.9903 0.4193,2.9815 -0.055,3.8244 -2.3593,4.207 -2.7982,0.4645 -2.8143,0.5923 -0.5664,4.3398 1.2737,2.1233 3.0658,3.8466 3.9824,3.8301 2.2443,-0.04 2.2026,4.3356 -0.098,10.2188 -2.6535,6.7858 -2.183,8.799 0.7051,3.0175 3.0231,-6.0519 6.4847,-9.3771 6.5547,-6.2988 0.026,1.1462 -0.4758,2.424 -1.1152,2.8399 -0.6393,0.4158 -1.4082,2.418 -1.709,4.4511 -0.3007,2.0331 -1.0161,4.9084 -1.5899,6.3887 -0.9289,2.3966 -0.8011,2.4858 1.1641,0.8105 1.9681,-1.6777 2.2151,-1.4943 2.2891,1.6934 0.047,2.0435 0.6451,3.2073 1.3964,2.7188 0.7226,-0.47 1.3354,0.082 1.3614,1.2246 0.026,1.1429 -0.8863,2.0986 -2.0293,2.125 -1.143,0.026 -1.7154,0.6066 -1.2715,1.289 0.4439,0.6825 -0.04,5.4099 -1.0762,10.5039 -1.4781,7.2692 -2.5792,9.6537 -5.1133,11.086 -3.593,2.0307 -4.1854,5.0845 -1.1933,6.1543 2.5752,0.9207 5.3655,8.9431 4.3359,12.4668 -0.4474,1.5309 -2.3957,3.4923 -4.3301,4.3593 -3.4221,1.5339 -3.4357,1.5894 -0.5058,2.0293 3.5681,0.5358 4.2941,6.1559 1.3418,10.3848 -1.0203,1.4617 -1.4988,4.1461 -1.0762,6.0391 0.5373,2.4076 -0.2203,4.63 -2.584,7.5742 -2.984,3.7167 -3.1159,4.3483 -1.2246,5.8457 1.6443,1.3019 1.9554,3.1263 1.3848,8.125 -0.6186,5.4203 -0.3924,6.4365 1.4277,6.3945 1.8131,-0.042 1.6927,0.6226 -0.748,4.0879 -2.3581,3.3483 -2.561,4.3436 -1.0625,5.2227 1.0931,0.6414 1.5723,2.2633 1.1699,3.9609 -0.56,2.362 -0.2291,2.7188 1.8555,2.0039 1.7637,-0.6049 2.5499,-0.2338 2.5839,1.2188 0.028,1.2006 1.1829,2.0627 2.7149,2.0273 3.0395,-0.07 3.2613,0.9124 1.3965,6.1797 -0.7298,2.0613 -1.4932,7.6698 -1.6973,12.4629 -0.3559,8.3513 -1.6088,10.9408 -6.0645,12.541 -0.8344,0.2997 -0.4602,2.1919 0.9688,4.8984 3.2799,6.2121 3.0092,8.7523 -1.5664,14.7227 -3.2922,4.2957 -3.8328,5.9694 -3.0137,9.3281 0.5492,2.251 1.488,4.0801 2.086,4.0664 0.7325,-0.017 -3.7127,23.4488 -4.7013,24.8164 -0.014,0.02 2.4581,-0.2588 5.4942,-0.6191 l 5.5196,-0.6543 -0.668,4.8183 c -0.6432,4.6365 0.9995,7.9494 2.2187,4.4747 0.3265,-0.9291 0.3413,1.0182 0.033,4.3261 -0.3082,3.308 -1.1507,7.2259 -1.873,8.7071 -1.3159,2.6979 -1.4861,4.0201 -2.3789,18.5156 -0.3938,6.3928 -0.1401,7.6557 1.4101,7.0195 1.5628,-0.6413 1.7916,0.6639 1.3145,7.5215 -0.3174,4.5634 -1.4186,10.8026 -2.4473,13.8633 -1.4398,4.2845 -1.5108,6.2024 -0.3027,8.3398 1.4536,2.5718 1.4258,6.5627 -0.1543,21.8555 -0.499,4.83 -0.3797,5.0049 2.8125,4.125 3.8106,-1.0503 4.2256,0.1859 1.4551,4.3418 -1.0641,1.5952 -1.5644,3.8012 -1.1133,4.9004 0.4511,1.0992 -0.458,3.8121 -2.0195,6.0293 -1.5883,2.2552 -2.3852,4.7259 -1.8106,5.6094 0.7799,1.199 1.2926,1.1374 2.1309,-0.2559 0.83,-1.3792 1.1236,-1.1714 1.1836,0.832 0.044,1.4661 -1.5696,4.4947 -3.586,6.7305 -3.5619,3.9495 -3.5955,4.1372 -1.1797,6.6133 2.9917,3.0665 3.1641,5.4983 0.7383,10.4219 -1.0409,2.1125 -1.2495,3.6952 -0.4843,3.6777 0.7391,-0.017 0.9918,1.1778 0.5605,2.6543 -0.6045,2.0688 0.04,2.9768 2.8086,3.957 2.9629,1.049 3.4586,1.856 2.8359,4.6035 -0.556,2.4532 -0.2194,3.3176 1.2715,3.2832 2.9751,-0.069 2.522,2.2391 -1.082,5.5215 -1.7419,1.5865 -2.8251,3.7166 -2.4082,4.7324 1.0797,2.6308 -1.6519,5.5542 -6.2344,6.6719 -7.1722,1.7494 -10.229,11.5425 -3.5548,11.3887 2.1501,-0.05 2.6248,0.5308 2.047,2.5078 -0.4134,1.4148 -0.069,2.9736 0.7656,3.4629 0.846,0.4958 1.1941,2.3071 0.7891,4.0937 -0.7838,3.4588 1.605,4.365 4.2383,1.6075 3.0031,-3.1448 4.1274,-0.6068 2.3007,5.1953 -1.4101,4.4782 -1.461,6.2299 -0.2207,7.6562 1.9491,2.2414 0.8787,5.9024 -1.7441,5.9629 -2.3074,0.053 -3.7577,3.6375 -2.709,6.6953 0.4408,1.2857 -0.351,3.2972 -1.8613,4.7285 -2.6807,2.5407 -3.4908,6.0995 -1.377,6.0508 0.6434,-0.015 1.8958,-0.9437 2.7832,-2.0644 2.3961,-3.0265 5.278,-2.5528 5.334,0.8769 0.036,2.2265 -0.2611,2.533 -1.1562,1.1895 -1.5062,-2.2612 -3.6011,-1.0006 -4.4766,2.6933 -0.4873,2.0557 -0.161,2.6015 1.2188,2.0352 2.5518,-1.0473 2.6748,4.9205 0.1464,7.1191 -1.036,0.9009 -1.5439,2.4636 -1.1289,3.4746 0.4149,1.0111 -0.3705,3.5365 -1.7461,5.6114 -2.0449,3.0846 -5.3985,11.461 -5.3555,13.373 0.01,0.2572 1.5109,0.4328 3.3437,0.3906 4.5859,-0.1056 9.629,4.8019 7.9005,7.6875 -0.7128,1.19 -2.1305,2.1835 -3.1504,2.2071 -1.6839,0.039 -1.9519,0.997 -1.2832,4.5996 0.1256,0.6768 1.1618,1.4023 2.3008,1.6133 1.6404,0.3037 1.2294,1.5809 -1.9707,6.1386 l -4.0392,5.7539 4.1876,3.3633 c 4.5503,3.6531 5.5571,8.3977 2.3692,11.1699 -2.3745,2.065 -2.4598,5.6036 -0.1875,7.7735 1.32,1.2588 1.3245,2.1801 0.025,4.3711 -1.2817,2.172 -1.2812,3.1894 0.01,4.6738 1.2251,1.4089 1.2947,2.7283 0.2696,5.1231 -1.0786,2.5197 -0.9504,3.5659 0.582,4.7792 2.6205,2.0747 2.5342,4.5416 -0.457,13.3028 -1.3848,4.0559 -2.1694,8.8674 -1.7442,10.6914 0.4253,1.824 0,4.8686 -0.9433,6.7656 -1.5343,3.081 -1.3807,3.9191 1.4492,7.8516 1.7424,2.4212 2.8941,4.8696 2.5586,5.4414 -0.3354,0.5718 0.038,1.4202 0.8301,1.8847 1.0028,0.588 0.9809,1.4229 -0.068,2.7481 -0.8289,1.0469 -1.5438,5.0606 -1.5898,8.9199 -0.047,3.8593 -0.9238,8.4645 -1.9473,10.2344 -1.3685,2.3662 -1.4404,3.3595 -0.2735,3.7539 1.1069,0.3741 0.8146,1.9194 -0.9687,5.1074 -2.687,4.8036 -1.8173,8.9105 2.1914,10.3438 2.4739,0.8832 4.0775,8.4157 2.4727,11.5879 -0.7002,1.384 -1.768,6.0103 -2.375,10.2812 -0.6068,4.2709 -1.4504,9.7664 -1.875,12.2109 -0.6267,3.609 -0.2321,4.8044 2.1035,6.3614 3.6804,2.4534 3.6596,4.2498 -0.1446,12.623 -2.7156,5.9775 -2.9966,8.151 -2.2246,17.1485 0.8588,10.0116 0.7879,10.3482 -2.4609,11.9199 -3.811,1.8435 -4.4315,5.7004 -0.9043,5.6191 3.1634,-0.073 6.4957,4.9946 4.5938,6.9864 -1.7767,1.8604 -1.5262,13.7033 0.5234,24.7226 1.2608,6.7779 1.2156,9.0256 -0.2305,11.3477 -0.9918,1.5925 -2.0466,4.999 -2.3437,7.5703 -0.297,2.5712 -1.0066,5.8333 -1.5762,7.248 -0.8696,2.1593 -0.5884,2.4434 1.752,1.7735 3.4224,-0.9798 4.7481,1.6421 3.1347,6.1992 -0.7712,2.1779 -0.6857,3.5866 0.252,4.1367 2.0066,1.1772 0.3713,9.9658 -2.4727,13.2871 -4.237,4.9482 -4.9912,8.0971 -4.1816,17.4727 1.319,15.275 1.6323,17.1347 3.3808,20.1347 2.3712,4.0738 2.4259,19.0904 0.078,22.3477 -2.567,3.5615 -2.3524,4.7995 0.8183,4.7265 2.0618,-0.048 2.6869,0.8278 2.7559,3.8594 0.05,2.1562 -0.5375,4.3292 -1.3047,4.8281 -0.7673,0.499 -1.9386,2.4441 -2.6035,4.3223 -0.9877,2.7897 -0.7165,3.7426 1.4863,5.211 2.1468,1.4311 2.4638,2.4554 1.5547,5.0234 -1.2486,3.5265 -0.065,12.3631 1.8027,13.459 2.1444,1.258 1.3264,5.8543 -2.0429,11.4746 -2.5583,4.2674 -2.9311,5.7962 -1.6016,6.5762 1.3184,0.7734 1.3761,1.4677 0.2402,2.9023 -0.8208,1.0368 -1.7767,5.3056 -2.125,9.4863 -0.4938,5.9269 -0.2329,7.5914 1.1856,7.5586 1.3568,-0.031 1.8338,2.0773 1.8808,8.293 0.034,4.5837 0.6123,9.4112 1.2852,10.7285 0.8425,1.6493 0.5083,3.5271 -1.0723,6.0273 -1.8934,2.9954 -2.263,6.9 -2.1172,22.2989 0.097,10.2671 0.7184,20.7545 1.3809,23.3066 0.6626,2.5521 1.678,7.7574 2.2559,11.5664 1.0289,6.7808 0.9594,6.9827 -3.2872,9.7012 -4.066,2.6029 -4.3434,3.2806 -4.4434,10.8223 -0.1001,7.5741 0.043,7.9597 2.4356,6.6074 3.4052,-1.9264 3.4205,0.8346 0.027,5.3847 -3.0163,4.0448 -3.1891,5.4076 -0.6797,5.3497 1.2533,-0.029 1.8306,1.3772 1.7656,4.2949 -0.065,2.9131 0.4671,4.2066 1.6192,3.9433 1.1983,-0.2738 1.3974,0.3255 0.6621,1.9864 -0.5788,1.3074 -0.6004,12.5681 -0.047,25.0254 0.5536,12.4572 1.0705,26.0691 1.1465,30.248 0.1129,6.0988 0.5188,7.4436 2.0566,6.8125 1.0538,-0.4324 1.9341,-0.043 1.9551,0.8652 0.068,2.951 -5.057,10.4317 -7.6563,11.1758 -2.3673,0.6777 -2.4012,1.0773 -0.5273,6.1348 2.5472,6.8742 2.6619,21.4602 0.1699,21.5176 -2.0751,0.048 -2.3083,3.6226 -0.2773,4.248 0.9091,0.2799 0.7504,2.4026 -0.4551,6.0879 -1.0181,3.1123 -1.3232,5.969 -0.6777,6.3477 0.6454,0.3786 1.6562,4.7223 2.2461,9.6523 0.59,4.93 1.4449,9.8536 1.9003,10.9434 1.1951,2.859 0.585,5.447 -2.1484,9.0918 -1.7107,2.281 -2.0701,4.0326 -1.2441,6.0839 0.6413,1.5846 0.9323,4.7003 0.6523,6.9239 -0.3613,2.8697 0.2692,4.7159 2.1738,6.3613 2.2994,1.9865 2.4828,2.8866 1.2832,6.3008 -0.8905,2.5347 -2.08,3.7423 -3.2714,3.3164 -1.3833,-0.4946 -1.6872,0.1995 -1.1582,2.6582 0.417,1.9386 -0.051,3.995 -1.1211,4.9258 -1.0117,0.879 -1.4805,2.4714 -1.0431,3.5371 0.4372,1.0656 0.1197,2.7918 -0.707,3.8359 -1.8379,2.3216 -0.8143,3.4624 3.2071,3.5723 2.681,0.073 3.1142,0.8749 3.6172,6.7051 0.3142,3.6417 1.2443,7.3961 2.0683,8.3437 1.0883,1.2524 1.0861,2.1533 -0.01,3.3008 -0.9017,0.9442 -1.4038,6.0616 -1.25,12.7324 0.2431,10.547 0.4017,11.1043 2.9043,10.2461 3.7933,-1.3009 3.5788,3.0361 -0.4356,8.8145 -5.2885,7.6124 -6.5301,10.7317 -4.7011,11.8046 1.2093,0.7094 1.2824,3.015 0.3085,9.5665 -1.3176,8.8651 -2.9415,12.5228 -5.0215,11.3027 -2.8187,-1.6535 0.7519,3.4451 3.6973,5.2793 2.4566,1.53 2.9867,2.6092 2.1446,4.3652 -3.8158,7.9564 -6.6376,20.4596 -4.5176,20.0156 2.7875,-0.5838 5.0164,-3.8491 4.3105,-6.3144 -0.4995,-1.7448 -0.1513,-2.3027 1.1485,-1.8379 2.4403,0.8724 2.4957,0.6218 -2,9.0352 -2.6871,5.0283 -3.6159,8.271 -3.0059,10.4843 0.5737,2.0814 0.1717,3.8224 -1.1466,4.9688 -1.8171,1.5802 -1.728,2.1705 0.8595,5.6328 2.8138,3.7649 2.8342,4.0256 0.7402,9.9121 -1.3735,3.8611 -1.8032,7.5771 -1.1875,10.2813 0.5301,2.329 1.5454,7.9678 2.2559,12.5293 0.7103,4.5614 1.9845,9.0881 2.8301,10.0605 1.142,1.3133 1.1093,6.0214 -0.125,18.3066 -0.9139,9.0966 -2.08,16.8696 -2.5918,17.2735 -1.8113,1.4294 -1.586,4.4049 0.4433,5.8554 1.7547,1.2543 1.9054,3.3085 1.0313,14.0098 -0.9007,11.0232 -0.7575,12.7263 1.1836,14.0781 2.0219,1.4082 1.9818,2.0837 -0.4746,8.002 -3.1774,7.6551 -3.1573,7.47 -0.8164,7.416 2.0632,-0.048 3.5346,3.8991 3.7011,9.9297 0.073,2.6464 -0.8296,4.6286 -2.6523,5.8262 -2.2394,1.4713 -2.5758,2.6147 -1.7754,6.0312 2.3146,9.8814 2.5992,15.5936 0.9727,19.5098 -0.9329,2.2458 -2.1489,4.0924 -2.7032,4.1054 -0.5542,0.013 -0.9908,0.8313 -0.9668,1.8184 0.023,0.9871 -0.9105,3.8189 -2.0743,6.293 -1.1637,2.474 -2.3293,7.4211 -2.5898,10.9941 -0.379,5.2021 0.072,7.0692 2.2636,9.3731 1.8313,1.9247 2.5808,4.1489 2.2638,6.7187 -0.4317,3.5004 -0.2904,3.6503 1.584,1.6875 1.9476,-2.0396 5.9852,-1.875 6.0352,0.2461 0.013,0.5421 -0.8752,2.8952 -1.9727,5.2285 -1.2754,2.7112 -1.6007,5.3189 -0.9023,7.2266 0.601,1.6418 0.9561,3.5244 0.791,4.1836 -0.1653,0.6592 0.3712,2.9905 1.1914,5.1797 1.2995,3.4684 1.0427,4.5964 -1.9922,8.7715 -2.257,3.1047 -2.9189,4.9635 -1.8809,5.2832 2.5957,0.7992 1.9285,3.395 -2.1621,8.4101 -6.6688,8.1758 -3.823,13.1432 4.9805,8.6934 5.9203,-2.9923 5.7658,-3.0521 5.8887,2.2636 0.058,2.5228 0.8648,5.055 1.7949,5.627 1.7226,1.0594 8.3135,1.6198 16.0098,2.0957 z m -30.9669,-868.2344 c 0.7332,-0.017 1.3065,-1.231 1.2715,-2.6972 -0.034,-1.4663 -0.6613,-2.6517 -1.3946,-2.6348 -0.733,0.017 -1.3065,1.229 -1.2715,2.6953 0.034,1.4663 0.6616,2.6536 1.3946,2.6367 z m -8.2266,-612.1308 c 0.4549,-0.1565 1.5927,-1.2625 3.4473,-3.3301 2.3266,-2.5938 2.532,-3.2382 0.8046,-2.5293 -1.2748,0.5232 -2.8966,2.0932 -3.6035,3.4902 -0.8757,1.731 -1.1034,2.5256 -0.6484,2.3692 z m -20.5607,-29.377 4.2403,-4.0156 c 2.3331,-2.2082 4.2324,-4.2022 4.2324,-4.4316 -0.024,-1.0299 -1.102,-0.097 -4.6582,4.0253 z m 27.6876,-35.9805 c 0.7331,-0.017 1.6888,-0.6392 2.125,-1.3828 0.4363,-0.7435 0.1942,-1.3391 -0.539,-1.3222 -0.7333,0.017 -1.6908,0.6392 -2.127,1.3828 -0.4362,0.7436 -0.1922,1.3393 0.541,1.3222 z m 8.1232,-54.8691 c -2.1738,0.05 -2.2078,-0.2601 -0.4531,-3.9902 1.3492,-2.8684 2.8651,-4.067 5.2148,-4.1211 2.2677,-0.052 3.0267,0.456 2.4043,1.6113 -2.065,3.8325 -4.9497,6.4488 -7.166,6.5 z m -4.7695,-53.2363 c 2.2522,-0.052 4.9162,-2.7938 4.8652,-5.0059 -0.054,-2.3504 -3.7853,-0.6056 -5.3594,2.5059 -0.9601,1.8976 -0.8356,2.5306 0.4942,2.5 z m 5.123,-20.5742 c 0.1295,0.5409 0.801,0.546 1.959,-0.2071 0.7709,-0.5012 1.3576,-1.9249 1.3066,-3.164 -0.083,-1.9782 -0.3242,-1.9352 -1.9785,0.3593 -1.0046,1.3936 -1.4166,2.4709 -1.2871,3.0118 z m -9.8907,-48.668 c 0.6499,-0.015 1.4037,-1.8342 1.6758,-4.041 0.5228,-4.2402 -0.8977,-5.4369 -2.1836,-1.8399 -1.1017,3.0812 -0.8575,5.9124 0.5078,5.8809 z m 3.8614,-244.1543 c 0.07,0.067 0.6007,-0.3478 1.6387,-1.2012 1.2598,-1.0358 2.2793,-2.1099 2.2793,-2.3867 -0.025,-1.0972 -1.1047,-0.3661 -2.7949,1.8945 -0.8047,1.0762 -1.1935,1.6261 -1.1231,1.6934 z m 13.0801,-4.3028 c -0.7331,0.017 -0.9772,-0.5766 -0.541,-1.3203 0.4362,-0.7434 1.3937,-1.3668 2.1269,-1.3828 0.7331,-0.017 0.9753,0.5767 0.5391,1.3203 -0.4362,0.7434 -1.3918,1.3668 -2.125,1.3828 z m -11.8789,-45.0722 c 0.7333,-0.017 2.06,-0.9476 2.9472,-2.0684 0.9,-1.1368 1.025,-2.0218 0.2813,-2.0058 -0.7331,0.017 -2.0599,0.9476 -2.9473,2.0683 -0.8999,1.1366 -1.0247,2.0219 -0.2812,2.0059 z m 1.0117,-21.3614 c 0.7331,-0.017 1.6888,-0.6392 2.125,-1.3828 0.4363,-0.7435 0.1941,-1.3363 -0.5391,-1.3203 -0.733,0.017 -1.6888,0.6372 -2.125,1.3809 -0.4362,0.7436 -0.1941,1.3382 0.5391,1.3222 z m 0.4258,-110.8789 c -0.2387,-0.098 -0.2032,-0.6678 -0.018,-1.7597 0.2358,-1.3883 1.1727,-2.791 2.082,-3.1172 2.3597,-0.8465 2.1005,1.6317 -0.3984,3.8047 -0.9137,0.7945 -1.4273,1.1698 -1.666,1.0722 z m -3.7482,-7.7421 c 0.3233,-0.01 0.9448,-0.6217 1.381,-1.3653 0.4362,-0.7436 0.1592,-1.3373 -0.6173,-1.3203 -0.7764,0.018 -1.3969,0.632 -1.3809,1.3652 0.017,0.7331 0.2939,1.3324 0.6172,1.3204 z m 6.3712,-50.2305 c 0.6845,-0.4452 0.8808,-1.3702 0.4356,-2.0547 -0.4452,-0.6845 -1.3702,-0.8808 -2.0547,-0.4356 -0.6846,0.4452 -0.8807,1.3701 -0.4356,2.0547 0.4452,0.6845 1.37,0.8808 2.0547,0.4356 z m -0.1582,-4.7695 c 0.5604,0.036 1.1409,-0.4969 2.166,-1.5704 2.7331,-2.8622 1.1598,-4.7139 -1.8105,-2.1308 -1.9586,1.7031 -2.0874,1.5721 -1.2559,-1.2735 0.6752,-2.3106 0.4631,-3.0022 -0.7832,-2.5546 -2.5263,0.9073 -2.6489,2.8085 -0.3672,5.6894 0.9496,1.199 1.4904,1.8042 2.0508,1.8399 z m -0.457,-42.4922 c 1.1429,-0.026 2.0629,-0.6478 2.0469,-1.3809 -0.017,-0.7331 -0.5953,-1.3197 -1.2852,-1.3047 -0.6898,0.016 -1.6107,0.6373 -2.0469,1.3809 -0.4362,0.7436 0.1422,1.3307 1.2852,1.3047 z m -8.1212,-5.1485 c 1.143,-0.026 2.0629,-0.6477 2.0469,-1.3808 -0.017,-0.7332 -0.5952,-1.3178 -1.2852,-1.3028 -0.6898,0.016 -1.6107,0.6373 -2.0469,1.3809 -0.4362,0.7437 0.1422,1.3287 1.2852,1.3027 z m 9.0353,-23.1621 c 0.7161,-0.2494 1.4859,-1.422 3.0918,-3.791 l 2.7558,-4.0645 -5.4219,0.125 c -5.9014,0.136 -7.0523,2.2936 -3.1914,5.9805 1.3887,1.3262 2.0495,1.9994 2.7657,1.75 z m -1.8282,-43.6875 c 0.7331,-0.017 1.3188,-0.6301 1.3028,-1.3633 -0.017,-0.7332 -0.6302,-1.3187 -1.3633,-1.3027 -0.7332,0.017 -1.3187,0.6301 -1.3028,1.3633 0.017,0.733 0.6301,1.3187 1.3633,1.3027 z m -6.963,-4.4531 c 0.7257,-0.5178 1.0921,-1.5634 0.5938,-2.7774 -0.4378,-1.0669 -1.2968,-1.928 -1.9082,-1.914 -1.9352,0.045 -2.8913,2.9109 -1.4356,4.3008 0.9407,0.8983 2.0244,0.9084 2.75,0.3906 z m -21.4317,-23.2051 c 0.8644,-0.3105 1.7923,-1.2828 2.0625,-2.1601 0.7443,-2.4176 -1.9991,-1.8506 -2.873,0.5937 -0.4683,1.3097 -0.1561,1.9135 0.8105,1.5664 z m 19.5138,-246.59963 c 0.6605,-0.7656 1.3037,-2.487 1.7773,-4.9863 l 0.7617,-4.0196 -2.6211,3.127 c -1.4418,1.7196 -2.2516,4.0296 -1.7988,5.1328 0.5424,1.3216 1.2204,1.5117 1.8809,0.7461 z m 4.2383,-43.7949 c 0.779,-0.5101 1.7695,-1.7331 2.6407,-3.4551 1.2477,-2.4664 1.1374,-2.5411 -1.3477,-0.9082 -1.4884,0.9778 -2.6871,2.5686 -2.6641,3.5352 0.026,1.1344 0.5921,1.3381 1.3711,0.8281 z m 3.3282,-168.1875 c 1.1506,-0.4723 2.0785,-1.4443 2.0625,-2.1602 -0.04,-1.752 -3.0439,-0.5859 -3.6621,1.4219 -0.3023,0.9815 0.3128,1.2663 1.5996,0.7383 z m -9.1271,-133.68362 c 0.7331,-0.017 1.6888,-0.6394 2.125,-1.3828 0.4362,-0.7436 0.1941,-1.3383 -0.539,-1.3223 -0.7331,0.017 -1.6908,0.6392 -2.127,1.3828 -0.4363,0.7437 -0.192,1.3383 0.541,1.3223 z m 4.6211,-5.4414 c 1.143,-0.026 2.063,-0.6477 2.047,-1.3809 -0.017,-0.7332 -0.5955,-1.3197 -1.2853,-1.3047 -0.6899,0.016 -1.6106,0.6375 -2.0468,1.3809 -0.4362,0.7437 0.1421,1.3307 1.2851,1.3047 z m 2.6505,-33.09768 c 0.018,0.7803 0.8617,0.6316 1.9922,-0.3515 1.0785,-0.9381 1.9492,-1.9142 1.9492,-2.168 -0.01,-0.2538 -0.9021,-0.094 -1.9922,0.3535 -1.0899,0.4473 -1.9652,1.4214 -1.9492,2.166 z m -6.5352,-3.1133 c 0.9788,-0.3512 1.9622,-1.7127 2.1855,-3.0253 0.2594,-1.5265 -0.2347,-2.1564 -1.373,-1.7481 -0.9789,0.3513 -1.9624,1.7128 -2.1856,3.0254 -0.2596,1.5264 0.2347,2.1564 1.3731,1.748 z m 5.0839,-69.9902 c 0.8829,-0.5741 0.7308,-1.2576 -0.4316,-1.9394 -2.1696,-1.2728 -3.1273,-0.5484 -1.8574,1.4043 0.5089,0.7825 1.539,1.0228 2.289,0.5351 z m -0.541,-35.1855 c 2.4604,-0.057 5.1916,-3.6543 4.0763,-5.3692 -1.3389,-2.0587 -4.3466,-1.5766 -5.2091,0.836 -1.182,3.3062 -0.8635,4.5792 1.1328,4.5332 z m -0.6836,-131.3926 c 1.0743,1.0258 5.1386,-0.7424 5.1036,-2.2207 -0.035,-1.5193 -1.5029,-1.4521 -3.959,0.1816 -1.0623,0.7069 -1.578,1.6251 -1.1446,2.0391 z m 0.4668,-55.3184 c 0.3234,-0.01 0.9447,-0.6215 1.3809,-1.3652 0.4363,-0.7437 0.1572,-1.3373 -0.6192,-1.3203 -0.7765,0.018 -1.3968,0.634 -1.3808,1.3672 0.017,0.7332 0.2959,1.3313 0.6191,1.3183 z m 5.67,-0.289 c 0.2025,0.049 0.4458,-0.5866 0.8907,-1.8633 0.5152,-1.4789 1.4726,-3.7498 2.1289,-5.0488 0.6676,-1.3215 0.6726,-2.351 0.012,-2.336 -2.2357,0.052 -4.2875,3.9591 -3.6836,7.0137 0.2874,1.4531 0.4499,2.1856 0.6523,2.2344 z m -10.1973,-185.53519 c 0.3432,0.3278 1.362,-0.3358 2.2637,-1.4746 1.0221,-1.2911 1.1046,-2.0581 0.2207,-2.0371 -1.6109,0.037 -3.4302,2.6087 -2.4844,3.5117 z m 6.1798,-6.2656 c 0.07,0.067 0.6026,-0.3478 1.6406,-1.201205 1.2598,-1.0357 2.2773,-2.1099 2.2773,-2.3867 -0.025,-1.0972 -1.1027,-0.3641 -2.7929,1.8965 -0.8047,1.0762 -1.1954,1.624205 -1.125,1.691405 z m -15.5861,-394.51761 c 0.088,0.1579 0.5976,-0.2411 1.584,-1.0937 1.1965,-1.0343 2.1625,-2.4073 2.1485,-3.0508 -0.047,-2.036 -1.2135,-1.2455 -2.795,1.8945 -0.6932,1.3765 -1.0258,2.0921 -0.9375,2.25 z m 13.416,-564.3535 c 0.7765,-0.018 1.3969,-0.632 1.3809,-1.3652 -0.017,-0.7329 -0.2959,-1.3304 -0.6191,-1.3184 -0.3234,0.01 -0.9447,0.6218 -1.3809,1.3652 -0.4362,0.7437 -0.1572,1.3354 0.6191,1.3184 z m -0.1718,-65.3457 c -0.7763,0.018 -1.0554,-0.5766 -0.6192,-1.3203 0.4362,-0.7434 1.0576,-1.3523 1.3809,-1.3653 0.3232,-0.01 0.6031,0.5874 0.6191,1.3204 0.017,0.7332 -0.6043,1.3482 -1.3808,1.3652 z m -9.8301,-12.0254 c 0.7378,0.3284 1.7903,0.062 3.5059,-0.6426 1.2936,-0.5309 2.0522,-2.4535 1.9902,-5.04687 -0.093,-3.8877 -0.4403,-4.1936 -4.8184,-4.1836 -3.5523,0 -4.5289,0.4706 -3.9492,1.8829 0.4233,1.0315 1.1649,3.3119 1.6484,5.06637 0.4612,1.673 0.8853,2.5954 1.6231,2.9238 z m 4.6758,-66.84767 c 0.8876,0.8475 5.8779,-5.5442 5.1738,-6.6269 -1.1618,-1.7864 -4.2686,0.2649 -4.9863,3.293 -0.3736,1.5763 -0.4573,3.0761 -0.1875,3.3339 z"
       inkscape:label="leftedge" />
  </g>
</svg>
